<svg xmlns="http://www.w3.org/2000/svg" viewBox="0 0 1843.46 221.5"><defs><style>.cls-1{fill:#fff;}</style></defs><g id="Layer_2" data-name="Layer 2"><g id="Layer_2-2" data-name="Layer 2"><ellipse cx="1536.21" cy="109" rx="101.91" ry="102"/><path d="M1536.21,7.5A101.5,101.5,0,1,1,1434.8,109,101.58,101.58,0,0,1,1536.21,7.5m0-1A102.5,102.5,0,1,0,1638.63,109,102.45,102.45,0,0,0,1536.21,6.5Z"/><ellipse cx="307.24" cy="109" rx="101.91" ry="102"/><path d="M307.24,7.5A101.5,101.5,0,1,1,205.83,109,101.58,101.58,0,0,1,307.24,7.5m0-1A102.5,102.5,0,1,0,409.66,109,102.45,102.45,0,0,0,307.24,6.5Z"/><path class="cls-1" d="M290.27,141.62a.83.83,0,0,0,0-.15c3.61-1.14,11.36-3.13,8.35-20.51-.91-4.31-2.2-8.62-3.11-12.93-3-17.39-1-19.38-5.39-20.51l.11-.16a77.41,77.41,0,0,0,13.51,1.14l0,0,.14,0h.7c6.33,0,7.14.19,6.28,2.81-1.11,2.81-4,9.1-3.56,11.48.06.51.32.75.67.75a.65.65,0,0,0,.68-.55,18.14,18.14,0,0,1,18-15.47c5.78,0,8.08,2.07,7.22,8.16-1,6.18-2.06,16.29-.32,23.17.55,2.34,1.3,3.51,4,3.79,0,.1,0,.21,0,.31-15.51.94-18.43-.51-19.46-4.84-2.14-7.5,4.74-19.69,6.92-25.59.52-2.07.27-3.2-1.85-3.2-4.51,0-15.37,6.72-12.39,19,.91,4.21,2.16,8.41,3.05,12.62,3,17.38,1,19.37,5.39,20.51l-.12.15a77.35,77.35,0,0,0-13.5-1.13h-.78A98,98,0,0,0,290.27,141.62Z"/><path d="M513.07,220A102,102,0,1,1,615,118,102.07,102.07,0,0,1,513.07,220Zm5.14-117.85.71.7-.69-.72Zm0,0,.7.71-.69-.72Zm10.16-1.1.31,1-.3-1Z"/><path d="M513.07,16.5A101.5,101.5,0,1,1,411.66,118,101.57,101.57,0,0,1,513.07,16.5m6.2,86.71.11-.11a3.66,3.66,0,0,1,2.67-1,14.39,14.39,0,0,1,2.43.28,15.47,15.47,0,0,0,2.62.3,5.57,5.57,0,0,0,1.77-.26l-.64-1.89a3.87,3.87,0,0,1-1.13.15,13.94,13.94,0,0,1-2.28-.27,16.9,16.9,0,0,0-2.77-.31h0a5.62,5.62,0,0,0-4,1.51l-.16.15,1.41,1.42m-6.2-87.71A102.5,102.5,0,1,0,615.48,118,102.45,102.45,0,0,0,513.07,15.5Zm9,85.63h0c1.69,0,3.45.58,5.05.58a4.6,4.6,0,0,0,1.44-.2h0a4.6,4.6,0,0,1-1.44.2c-1.6,0-3.36-.58-5.05-.58h0a4.63,4.63,0,0,0-3.48,1.37,4.6,4.6,0,0,1,3.48-1.37Z"/><path class="cls-1" d="M537,129.83c0,3.83,3.31,6,3.86,10,1.19,7.07-8.57,8.69-26.31,7.28-17.51-1.41-29.33-4.4-29.08-10.71.17-3,3.39-4.6,3.76-7.24.66-4.34-1.72-7.68-.93-11s5.49-6.3,6.17-10.8c.41-2.74-.75-5.13-.65-7.94.2-6.1,7.09-9.21,20.7-10.3,13.41-1.08,22.51,1.1,23.56,8,.39,2.94-.87,5.57-.85,8.45,0,3.9,2,6.36,1.8,9.49-.15,2.91-1.77,4.74-9.36,4.68-15.44-.19-23.05-6.83-30.42-6.68-4.28.06-8.51,1.6-9.15,4.34-1.06,5.44,21.08,1.14,19.93,13.68-.27,6.69-7.88,7.68-7.66,10.67.29,2.39,3.85,3.38,11.83,4s11.14.07,10.63-2.49c-.5-3.05-8.74-5-8.57-11.38.48-7.67,18.73-6.7,23.82-11.28l.33.18C538,124.59,537,127.19,537,129.83Zm-27.46-19.42c-.62,4.3,8.41,7.71,20.3,7.79,4.83,0,6.79-.51,6.92-2.65.19-4.85-18.56-2.42-18-11.18.15-6.28,6.12-8.12,5.6-11.27-.49-2.46-3.33-3-9.51-2.58s-8.54,1.39-8.25,3.72c.27,2.94,6,4.42,5.86,9.56C512.29,106.55,509.81,107.86,509.49,110.41Z"/><ellipse cx="716.9" cy="119" rx="101.91" ry="102"/><path d="M716.9,17.5A101.5,101.5,0,1,1,615.49,119,101.57,101.57,0,0,1,716.9,17.5m0-1A102.5,102.5,0,1,0,819.31,119,102.45,102.45,0,0,0,716.9,16.5Z"/><path class="cls-1" d="M694.47,143.56c0-5.29,4.26-12.92,4.26-19.32,0-7.1-3.28-13.62-3.28-18.66,0-7.63,9.72-10,21.44-10a58.22,58.22,0,0,1,12.05,1.27c.49.08.78-.08.86-.33s-.17-.57-.62-.7c-3.11-.65-4.92-1.84-6.14-4.43s-2.42-3.65-4.1-4.22l0-.16a91.19,91.19,0,0,0,15.2,1.19h.08A92.09,92.09,0,0,0,749.06,87l0,.16c-4.22,1.19-7.21,3.28-7.21,21.53v25.47c.37,15.06,3.28,16.94,7.17,18l0,.17a90.49,90.49,0,0,0-14.76-1.19v-.05l-.08.05h-.74c-6.68,0-7.91-.21-7.91-2.92,0-2.95,3-9.59,3-12.1,0-.49-.21-.73-.58-.73a.71.71,0,0,0-.69.57c-2.95,10.13-8.53,16.2-17.58,16.2C701,152.17,694.47,150.33,694.47,143.56Zm31.39-13.21v-13.9c0-16.78-1.76-19.73-7.78-19.73-4.55,0-5.86,1.72-5.86,6.52,0,5,2.91,12.71,2.91,21.16,0,8.82-6.56,16.78-6.56,22.69,0,2,1,3.28,3.93,3.28C717.38,150.37,725.86,143.8,725.86,130.35Z"/><ellipse cx="921.73" cy="109" rx="102" ry="101.91" transform="translate(811.41 1030.57) rotate(-89.92)"/><path d="M921.73,7.5A101.5,101.5,0,1,1,820.31,109,101.57,101.57,0,0,1,921.73,7.5m0-1A102.5,102.5,0,1,0,1024.14,109,102.46,102.46,0,0,0,921.73,6.5Z"/><path class="cls-1" d="M894.41,138.4c0-5.29,4.27-12.92,4.27-19.31,0-7.1-3.28-13.62-3.28-18.67,0-7.62,9.71-10,21.43-10a58.22,58.22,0,0,1,12,1.27c.49.08.78-.09.86-.33s-.16-.58-.61-.7C926,90,924.21,88.78,923,86.19s-2.42-3.65-4.1-4.22l0-.17A91.31,91.31,0,0,0,934.13,83h.08A92,92,0,0,0,949,81.8l0,.17c-4.22,1.19-7.21,3.28-7.21,21.53V129C942.2,144,945.11,145.91,949,147l0,.16A91.5,91.5,0,0,0,934.21,146v0l-.08,0h-.74c-6.68,0-7.91-.2-7.91-2.91,0-3,3-9.6,3-12.1,0-.49-.2-.74-.57-.74a.71.71,0,0,0-.7.58c-3,10.13-8.52,16.2-17.58,16.2C900.93,147,894.41,145.17,894.41,138.4Zm31.4-13.2V111.29c0-16.77-1.77-19.73-7.79-19.73-4.55,0-5.86,1.73-5.86,6.53,0,5,2.91,12.71,2.91,21.16,0,8.82-6.56,16.78-6.56,22.68,0,2,1,3.28,3.94,3.28C917.32,145.21,925.81,138.65,925.81,125.2Z"/><ellipse cx="1126.56" cy="109" rx="101.91" ry="102"/><path d="M1126.56,7.5A101.5,101.5,0,1,1,1025.14,109,101.57,101.57,0,0,1,1126.56,7.5m0-1A102.5,102.5,0,1,0,1229,109,102.46,102.46,0,0,0,1126.56,6.5Z"/><path class="cls-1" d="M1106.58,139.33c-.13-6.09,9-8.15,23-10,10.46-1.33,11.37-2.59,11.88-4,.15-.61-.1-.91-.53-.91s-.6,0-1,.49c-1.42,1.45-5.27,3.09-13,3.09s-16-1.18-16.7-7.39c-.27-3.88.39-9.37-.41-18.17-.09-10.7-.22-13.78-4.61-14.89l0-.15a102.92,102.92,0,0,0,13.16,1.26c5.61.23,6.14,1.06,4.56,4.41a17.83,17.83,0,0,0-1.41,5.41,99.51,99.51,0,0,0,3.17,25.29c.63,1.83,2.16,2.9,4.68,2.9,3.41,0,7.29-1,9.12-2.63a2.82,2.82,0,0,1,2.21-.8,2.08,2.08,0,0,1,2,2.21c-.2,2-2,3.46-8.88,4.76-7.88,1.41-10.85,3-10.76,5.18,0,2,1.65,3.43,7.3,3.43,19.56,0,20.06-1.57,20.44-5.49-.23-3-1.75-5.41-5.75-8.76-4.52-3.62-9.32-6.89-12-13.82-2.15-5.83-3.28-11.66-.85-17.49,1.42-3.12,3.78-4,8.82-4.34,5.65-.38,10.36-.64,16.47-1.52a.83.83,0,0,1,0,.15c-3.09,1.11-9.66,2.86-8.67,18.78q.25,2.19.63,4.38c1.2,6,4.3,10.7,4.7,15.84.07,4.88-1,10.26-7.47,14.42-5.88,4.16-17.07,7.1-25,7.1C1112.08,148.09,1107,144.55,1106.58,139.33Z"/><ellipse cx="102.41" cy="109" rx="101.91" ry="102"/><path d="M102.41,7.5A101.5,101.5,0,1,1,1,109,101.58,101.58,0,0,1,102.41,7.5m0-1A102.5,102.5,0,1,0,204.83,109,102.45,102.45,0,0,0,102.41,6.5Z"/><path class="cls-1" d="M137.17,95.12H128c-4,0-4.38-2.25-4.93-8s-2.53-10.15-1-12.74l-.24-.2c-9.42,1.27-29.71.2-35,.2-8.36,0-9.2,3.07-7.58,8,1.63,5.37,3.83,8.49,10.56,9.47,4.31.58,6.46,1.27,7.23,3.22H87.39c-2.73,0-3.88-.54-4.46-1l-.21.09A2.78,2.78,0,0,0,84.39,96a4.31,4.31,0,0,0-2.22,1.76l.18.1c.73-.49,2-1,4.76-1H97.36a14.69,14.69,0,0,1-.56,3.71c-2.19,8.54-6.42,17.09-8.53,25.63-3.77,21.73,1.35,24.22-4.4,25.64l.2.19a92.24,92.24,0,0,1,16.61-1.41h.92a128.83,128.83,0,0,1,18.57,1.41l-.09-.19c-4.28-1.32-14.47-3.57-13.57-21.49,1.36-8.82,5.68-17.64,8.42-26.46.93-3,1-5.27-.1-7h22.34Zm-15-1.07c-.1.92-1.2,1.07-3.19,1.07h-6c-3.15-2.1-9.4-3.27-20.67-4.49-5.41-.64-6.76-1.91-6.91-3.17-.19-1.52.72-2.2,2.78-2.2,9.23,0,20.45,2.93,29.16,5.61C121.83,92.29,122.24,93.22,122.15,94.05Z"/><ellipse cx="1741.04" cy="109" rx="102" ry="101.91" transform="translate(1629.56 1849.89) rotate(-89.92)"/><path d="M1741,7.5A101.5,101.5,0,1,1,1639.63,109,101.58,101.58,0,0,1,1741,7.5m0-1A102.5,102.5,0,1,0,1843.46,109,102.45,102.45,0,0,0,1741,6.5Z"/><path class="cls-1" d="M1720.19,134.08c-.13-6.09,9-8.15,23-10,10.46-1.34,11.37-2.59,11.88-4,.15-.61-.1-.92-.53-.92s-.6,0-1,.5c-1.42,1.45-5.27,3.08-13,3.08s-16-1.18-16.7-7.39c-.27-3.88.39-9.36-.41-18.16-.09-10.7-.22-13.79-4.61-14.89l0-.16A102.92,102.92,0,0,0,1732,83.43c5.61.23,6.14,1.07,4.56,4.42a17.68,17.68,0,0,0-1.41,5.41,99.64,99.64,0,0,0,3.17,25.29c.63,1.82,2.16,2.89,4.68,2.89,3.41,0,7.29-1,9.12-2.63a2.86,2.86,0,0,1,2.21-.8,2.1,2.1,0,0,1,2,2.21c-.2,2-2,3.47-8.88,4.76-7.88,1.41-10.85,3-10.76,5.18,0,2,1.65,3.43,7.3,3.43,19.56,0,20.06-1.56,20.44-5.48-.23-3.05-1.75-5.41-5.75-8.76-4.52-3.62-9.33-6.9-12-13.83-2.15-5.83-3.28-11.65-.85-17.48,1.42-3.12,3.78-4,8.82-4.34,5.65-.38,10.36-.65,16.47-1.53a.94.94,0,0,1,0,.16c-3.09,1.1-9.66,2.85-8.68,18.77.17,1.46.39,2.92.64,4.38,1.2,6.06,4.3,10.7,4.7,15.85.07,4.87-1,10.25-7.47,14.41-5.88,4.16-17.07,7.1-25,7.1C1725.69,142.84,1720.63,139.3,1720.19,134.08Z"/><ellipse cx="1331.39" cy="102.5" rx="102" ry="101.91" transform="translate(1226.99 1433.74) rotate(-89.92)"/><path d="M1331.39,1A101.5,101.5,0,1,1,1230,102.5,101.57,101.57,0,0,1,1331.39,1m0-1A102.5,102.5,0,1,0,1433.8,102.5,102.46,102.46,0,0,0,1331.39,0Z"/><path class="cls-1" d="M1311.44,140.34l0-.14c3.72-1,6.36-2.89,6.36-19l0,.11V101.86c0-16.08-2.67-17.92-6.35-19l0-.14a80.28,80.28,0,0,0,13,1h.65a78.21,78.21,0,0,0,12.82-1l0,.14c-2.78.91-3.87,2.71-6,11.28-1.16,4.69-2.28,8.74-2.28,10.33,0,.47.18.65.47.65s.47-.11.58-.54c2.64-9,7.47-14.31,14.84-14.31s14,1.12,14,7.66c0,4.63-3.72,11.38-3.72,17,0,6.25,2.89,12,2.89,16.44,0,6.68-8.59,8.82-18.88,8.82-5.63,0-10.4-.94-14.7-.94h-.65A81.93,81.93,0,0,0,1311.44,140.34Zm32.46-6.86c0-4.44-2.57-11.2-2.57-18.64,0-7.27,6.5-13.88,6.5-18.65,0-2.56-1.3-4.3-4.19-4.3-4.26,0-11.73,5.78-11.73,17.67v12.28c0,14.75,1.52,17.35,6.82,17.35C1342.74,139.19,1343.9,137.67,1343.9,133.48Z"/><path class="cls-1" d="M1513.49,129.55c0-2.79,2.45-4.41,2.45-6.83,0-4-2.67-7-2.67-10.16s3.5-5.74,3.5-9.82c0-2.5-1.3-4.74-1.3-7.3,0-5.6,7.51-7.88,20.69-7.88s20.76,2.28,20.76,7.88c0,2.56-1.3,4.8-1.3,7.3,0,4.08,3.54,6.79,3.54,9.82s-2.67,6.15-2.67,10.16c0,2.42,2.45,4,2.45,6.83,0,5.92-8.77,7.91-22.78,7.91S1513.49,135.47,1513.49,129.55Zm32,3.93c0-2.67-6.35-3.93-6.35-9.72,0-10.33,18.81-7.26,18.81-11.12,0-4.23-18.92-2.43-18.92-11.89,0-5.39,5.85-6.65,5.85-9.29,0-2.06-2.57-2.71-8.74-2.71s-8.63.65-8.63,2.71c0,2.64,5.81,3.9,5.81,9.29,0,9.46-18.88,7.66-18.88,11.89,0,3.86,18.81.79,18.81,11.12,0,5.79-6.35,7-6.35,9.72,0,2.14,2.74,2.79,9.24,2.79S1545.51,135.62,1545.51,133.48Z"/></g></g></svg>